<?xml version="1.0" standalone="no"?>
<!DOCTYPE svg PUBLIC "-//W3C//DTD SVG 20010904//EN"
 "http://www.w3.org/TR/2001/REC-SVG-20010904/DTD/svg10.dtd">
<svg version="1.0" xmlns="http://www.w3.org/2000/svg"
 width="348.000000pt" height="348.000000pt" viewBox="0 0 348.000000 348.000000"
 preserveAspectRatio="xMidYMid meet">

<g transform="translate(0.000000,348.000000) scale(0.100000,-0.100000)"
fill="#000000" stroke="none">
<path d="M40 1735 l0 -1695 1695 0 1695 0 0 1695 0 1695 -1695 0 -1695 0 0
-1695z m3370 0 l0 -1675 -1675 0 -1675 0 0 1675 0 1675 1675 0 1675 0 0 -1675z"/>
<path d="M2945 3230 c-46 -10 -79 -35 -103 -79 -56 -98 4 -215 119 -236 72
-13 168 53 184 126 25 111 -85 215 -200 189z m114 -39 c95 -67 90 -187 -10
-239 -97 -51 -209 14 -209 121 0 67 31 109 97 132 44 15 88 10 122 -14z"/>
<path d="M766 3193 c-274 -58 -485 -262 -562 -544 -24 -88 -24 -280 0 -368 78
-285 289 -487 568 -545 98 -20 168 -20 266 0 279 58 490 260 568 545 24 88 24
280 0 368 -106 386 -473 623 -840 544z m351 -57 c202 -65 368 -235 440 -451
24 -71 27 -95 27 -220 0 -125 -3 -149 -27 -220 -72 -215 -236 -384 -440 -452
-72 -24 -97 -27 -212 -27 -115 0 -140 3 -212 27 -204 68 -368 237 -440 452
-24 71 -27 95 -27 220 0 125 3 149 27 220 81 244 266 414 512 471 92 21 251
12 352 -20z"/>
<path d="M740 2825 c-107 -47 -207 -89 -222 -94 -31 -11 -38 -31 -10 -31 9 0
107 38 216 85 110 47 202 82 205 79 5 -5 50 -864 46 -871 0 -1 -39 -8 -85 -15
-48 -8 -85 -18 -88 -25 -2 -9 6 -13 25 -13 40 1 382 55 389 63 20 19 -15 23
-101 9 -53 -8 -99 -11 -103 -8 -3 4 -16 208 -29 454 -12 246 -22 448 -22 450
-3 8 -47 -9 -221 -83z"/>
<path d="M2349 2277 c-90 -34 -146 -87 -174 -166 -40 -114 10 -232 126 -296
46 -25 65 -30 124 -30 149 1 260 108 260 250 0 134 -105 241 -244 251 -33 3
-71 -1 -92 -9z m182 -54 c35 -19 64 -43 84 -71 27 -39 30 -52 30 -117 0 -65
-3 -78 -30 -117 -40 -57 -119 -98 -190 -98 -71 0 -150 41 -190 98 -27 39 -30
52 -30 117 0 65 3 78 30 117 40 57 119 98 190 98 36 0 67 -8 106 -27z"/>
<path d="M2402 2128 c-16 -16 -15 -103 1 -116 6 -5 23 -12 37 -14 21 -2 25 -9
28 -42 4 -47 -11 -67 -27 -37 -7 12 -16 21 -21 21 -16 0 -11 -26 9 -51 16 -21
22 -22 45 -11 23 10 26 18 26 60 0 57 -21 92 -56 92 -21 0 -24 4 -24 39 0 31
4 40 21 44 12 3 18 10 14 16 -8 15 -38 14 -53 -1z"/>
<path d="M2463 1446 c-220 -51 -398 -227 -460 -459 -23 -83 -23 -251 0 -334
56 -210 219 -386 410 -445 99 -31 235 -31 334 0 94 29 210 108 275 186 94 112
158 286 158 426 0 140 -64 314 -158 426 -63 77 -181 157 -270 184 -87 27 -209
34 -289 16z m229 -37 c74 -15 184 -71 245 -124 69 -60 135 -163 170 -260 24
-71 27 -94 27 -205 0 -111 -3 -134 -27 -205 -55 -155 -156 -273 -292 -339
-155 -76 -315 -76 -470 0 -136 66 -237 184 -292 339 -24 71 -27 94 -27 205 0
111 3 134 27 205 99 282 364 441 639 384z"/>
<path d="M2465 1191 c-37 -22 -61 -49 -69 -78 -11 -34 12 -37 29 -3 24 47 70
70 140 70 57 0 62 -2 79 -31 11 -19 21 -59 24 -99 l4 -67 -36 -28 c-45 -34
-35 -53 17 -34 30 11 39 10 61 -4 35 -23 64 -84 72 -151 8 -63 -5 -86 -78
-138 -75 -55 -138 -53 -138 4 0 11 -5 18 -12 15 -20 -7 -11 -60 12 -79 15 -12
31 -15 58 -11 45 7 138 69 171 113 20 28 23 40 18 92 -7 79 -47 160 -89 179
-31 15 -31 16 -29 82 2 69 -18 134 -53 170 -25 25 -140 24 -181 -2z"/>
<path d="M845 1444 c-154 -24 -310 -114 -413 -237 -86 -104 -152 -284 -152
-417 0 -132 65 -313 150 -415 84 -101 209 -183 335 -221 82 -25 258 -25 340 0
238 71 421 269 469 508 30 144 12 276 -54 413 -82 169 -232 297 -410 349 -56
17 -210 28 -265 20z m237 -53 c328 -84 524 -402 453 -735 -71 -338 -415 -552
-747 -467 -279 72 -468 314 -468 601 0 402 377 699 762 601z"/>
<path d="M970 1209 c-98 -11 -146 -25 -195 -59 -73 -50 -165 -162 -165 -200 0
-24 22 -7 53 43 40 62 112 128 170 155 46 22 254 49 268 35 8 -8 35 -120 50
-213 15 -88 2 -197 -31 -255 -15 -27 -35 -75 -45 -105 -15 -46 -30 -66 -96
-128 -64 -60 -77 -77 -75 -100 1 -16 8 -27 16 -26 40 3 376 77 384 85 25 23
-18 20 -185 -15 -100 -20 -183 -35 -185 -33 -3 3 29 35 70 71 68 61 77 74 102
144 15 42 36 89 46 104 40 59 46 211 14 345 -8 32 -17 75 -21 95 -11 69 -25
74 -175 57z"/>
</g>
</svg>
