<svg width="464" height="464" version="1.0" viewBox="0 0 348 348" xmlns="http://www.w3.org/2000/svg"><path d="M4 174.5V344h339V5H4v169.5zm337 0V342H6V7h335v167.5z"/><path d="M294.5 25c-4.6 1-7.9 3.5-10.3 7.9-5.6 9.8.4 21.5 11.9 23.6 7.2 1.3 16.8-5.3 18.4-12.6 2.5-11.1-8.5-21.5-20-18.9zm11.4 3.9c9.5 6.7 9 18.7-1 23.9-9.7 5.1-20.9-1.4-20.9-12.1 0-6.7 3.1-10.9 9.7-13.2 4.4-1.5 8.8-1 12.2 1.4zM76.6 28.7c-27.4 5.8-48.5 26.2-56.2 54.4-2.4 8.8-2.4 28 0 36.8 7.8 28.5 28.9 48.7 56.8 54.5 9.8 2 16.8 2 26.6 0 27.9-5.8 49-26 56.8-54.5 2.4-8.8 2.4-28 0-36.8-10.6-38.6-47.3-62.3-84-54.4zm35.1 5.7c20.2 6.5 36.8 23.5 44 45.1 2.4 7.1 2.7 9.5 2.7 22s-.3 14.9-2.7 22c-7.2 21.5-23.6 38.4-44 45.2-7.2 2.4-9.7 2.7-21.2 2.7s-14-.3-21.2-2.7c-20.4-6.8-36.8-23.7-44-45.2-2.4-7.1-2.7-9.5-2.7-22s.3-14.9 2.7-22c8.1-24.4 26.6-41.4 51.2-47.1 9.2-2.1 25.1-1.2 35.2 2z"/><path d="M74 65.5c-10.7 4.7-20.7 8.9-22.2 9.4-3.1 1.1-3.8 3.1-1 3.1.9 0 10.7-3.8 21.6-8.5 11-4.7 20.2-8.2 20.5-7.9.5.5 5 86.4 4.6 87.1 0 .1-3.9.8-8.5 1.5-4.8.8-8.5 1.8-8.8 2.5-.2.9.6 1.3 2.5 1.3 4-.1 38.2-5.5 38.9-6.3 2-1.9-1.5-2.3-10.1-.9-5.3.8-9.9 1.1-10.3.8-.3-.4-1.6-20.8-2.9-45.4-1.2-24.6-2.2-44.8-2.2-45-.3-.8-4.7.9-22.1 8.3zM234.9 120.3c-9 3.4-14.6 8.7-17.4 16.6-4 11.4 1 23.2 12.6 29.6 4.6 2.5 6.5 3 12.4 3 14.9-.1 26-10.8 26-25 0-13.4-10.5-24.1-24.4-25.1-3.3-.3-7.1.1-9.2.9zm18.2 5.4c3.5 1.9 6.4 4.3 8.4 7.1 2.7 3.9 3 5.2 3 11.7s-.3 7.8-3 11.7c-4 5.7-11.9 9.8-19 9.8s-15-4.1-19-9.8c-2.7-3.9-3-5.2-3-11.7s.3-7.8 3-11.7c4-5.7 11.9-9.8 19-9.8 3.6 0 6.7.8 10.6 2.7z"/><path d="M240.2 135.2c-1.6 1.6-1.5 10.3.1 11.6.6.5 2.3 1.2 3.7 1.4 2.1.2 2.5.9 2.8 4.2.4 4.7-1.1 6.7-2.7 3.7-.7-1.2-1.6-2.1-2.1-2.1-1.6 0-1.1 2.6.9 5.1 1.6 2.1 2.2 2.2 4.5 1.1 2.3-1 2.6-1.8 2.6-6 0-5.7-2.1-9.2-5.6-9.2-2.1 0-2.4-.4-2.4-3.9 0-3.1.4-4 2.1-4.4 1.2-.3 1.8-1 1.4-1.6-.8-1.5-3.8-1.4-5.3.1zM246.3 203.4c-22 5.1-39.8 22.7-46 45.9-2.3 8.3-2.3 25.1 0 33.4 5.6 21 21.9 38.6 41 44.5 9.9 3.1 23.5 3.1 33.4 0 9.4-2.9 21-10.8 27.5-18.6C311.6 297.4 318 280 318 266s-6.4-31.4-15.8-42.6c-6.3-7.7-18.1-15.7-27-18.4-8.7-2.7-20.9-3.4-28.9-1.6zm22.9 3.7c7.4 1.5 18.4 7.1 24.5 12.4 6.9 6 13.5 16.3 17 26 2.4 7.1 2.7 9.4 2.7 20.5s-.3 13.4-2.7 20.5c-5.5 15.5-15.6 27.3-29.2 33.9-15.5 7.6-31.5 7.6-47 0-13.6-6.6-23.7-18.4-29.2-33.9-2.4-7.1-2.7-9.4-2.7-20.5s.3-13.4 2.7-20.5c9.9-28.2 36.4-44.1 63.9-38.4z"/><path d="M246.5 228.9c-3.7 2.2-6.1 4.9-6.9 7.8-1.1 3.4 1.2 3.7 2.9.3 2.4-4.7 7-7 14-7 5.7 0 6.2.2 7.9 3.1 1.1 1.9 2.1 5.9 2.4 9.9l.4 6.7-3.6 2.8c-4.5 3.4-3.5 5.3 1.7 3.4 3-1.1 3.9-1 6.1.4 3.5 2.3 6.4 8.4 7.2 15.1.8 6.3-.5 8.6-7.8 13.8-7.5 5.5-13.8 5.3-13.8-.4 0-1.1-.5-1.8-1.2-1.5-2 .7-1.1 6 1.2 7.9 1.5 1.2 3.1 1.5 5.8 1.1 4.5-.7 13.8-6.9 17.1-11.3 2-2.8 2.3-4 1.8-9.2-.7-7.9-4.7-16-8.9-17.9-3.1-1.5-3.1-1.6-2.9-8.2.2-6.9-1.8-13.4-5.3-17-2.5-2.5-14-2.4-18.1.2zM84.5 203.6c-15.4 2.4-31 11.4-41.3 23.7C34.6 237.7 28 255.7 28 269c0 13.2 6.5 31.3 15 41.5 8.4 10.1 20.9 18.3 33.5 22.1 8.2 2.5 25.8 2.5 34 0 23.8-7.1 42.1-26.9 46.9-50.8 3-14.4 1.2-27.6-5.4-41.3-8.2-16.9-23.2-29.7-41-34.9-5.6-1.7-21-2.8-26.5-2zm23.7 5.3c32.8 8.4 52.4 40.2 45.3 73.5-7.1 33.8-41.5 55.2-74.7 46.7C50.9 321.9 32 297.7 32 269c0-40.2 37.7-69.9 76.2-60.1z"/><path d="M97 227.1c-9.8 1.1-14.6 2.5-19.5 5.9-7.3 5-16.5 16.2-16.5 20 0 2.4 2.2.7 5.3-4.3 4-6.2 11.2-12.8 17-15.5 4.6-2.2 25.4-4.9 26.8-3.5.8.8 3.5 12 5 21.3 1.5 8.8.2 19.7-3.1 25.5-1.5 2.7-3.5 7.5-4.5 10.5-1.5 4.6-3 6.6-9.6 12.8-6.4 6-7.7 7.7-7.5 10 .1 1.6.8 2.7 1.6 2.6 4-.3 37.6-7.7 38.4-8.5 2.5-2.3-1.8-2-18.5 1.5-10 2-18.3 3.5-18.5 3.3-.3-.3 2.9-3.5 7-7.1 6.8-6.1 7.7-7.4 10.2-14.4 1.5-4.2 3.6-8.9 4.6-10.4 4-5.9 4.6-21.1 1.4-34.5-.8-3.2-1.7-7.5-2.1-9.5-1.1-6.9-2.5-7.4-17.5-5.7z"/></svg>